<svg width="99" height="48" viewBox="0 0 99 48" fill="none" xmlns="http://www.w3.org/2000/svg">
  <path d="M28.628 9.544C28.628 11.584 28.1 13.456 27.044 15.16C25.988 16.864 24.452 18.256 22.436 19.336C20.42 20.416 18.02 21.052 15.236 21.244L13.688 29.92C13.088 33.256 11.456 34.924 8.792 34.924C7.328 34.924 5.972 34.492 4.724 33.628C3.5 32.764 2.516 31.444 1.772 29.668C1.028 27.892 0.656 25.708 0.656 23.116C0.656 18.244 1.436 14.116 2.996 10.732C4.58 7.324 6.692 4.78 9.332 3.1C11.996 1.396 14.924 0.543999 18.116 0.543999C20.372 0.543999 22.28 0.939999 23.84 1.732C25.424 2.524 26.612 3.604 27.404 4.972C28.22 6.316 28.628 7.84 28.628 9.544ZM15.884 17.536C20.804 16.912 23.264 14.356 23.264 9.868C23.264 8.284 22.736 7 21.68 6.016C20.648 5.008 19.04 4.504 16.856 4.504C14.384 4.504 12.224 5.284 10.376 6.844C8.552 8.404 7.136 10.576 6.128 13.36C5.144 16.12 4.652 19.276 4.652 22.828C4.652 24.316 4.796 25.636 5.084 26.788C5.396 27.94 5.78 28.84 6.236 29.488C6.716 30.112 7.172 30.424 7.604 30.424C8.204 30.424 8.66 29.596 8.972 27.94L10.16 21.136C9.224 20.992 8.816 20.932 8.936 20.956C8.216 20.836 7.748 20.62 7.532 20.308C7.316 19.972 7.208 19.552 7.208 19.048C7.208 18.52 7.352 18.1 7.64 17.788C7.952 17.476 8.372 17.32 8.9 17.32C9.14 17.32 9.32 17.332 9.44 17.356C10.016 17.452 10.46 17.512 10.772 17.536C11.084 15.664 11.528 13.156 12.104 10.012C12.248 9.196 12.572 8.62 13.076 8.284C13.604 7.924 14.216 7.744 14.912 7.744C15.704 7.744 16.268 7.9 16.604 8.212C16.964 8.5 17.144 8.968 17.144 9.616C17.144 10 17.12 10.312 17.072 10.552L15.884 17.536ZM32.2682 11.848C31.2602 11.848 30.5042 11.62 30.0002 11.164C29.4962 10.684 29.2442 10.024 29.2442 9.184C29.2442 8.344 29.5682 7.648 30.2162 7.096C30.8882 6.52 31.7162 6.232 32.7002 6.232C33.5882 6.232 34.3082 6.448 34.8602 6.88C35.4122 7.312 35.6882 7.924 35.6882 8.716C35.6882 9.676 35.3762 10.444 34.7522 11.02C34.1282 11.572 33.3002 11.848 32.2682 11.848ZM31.9802 31.18C30.4202 31.18 29.2802 30.628 28.5602 29.524C27.8642 28.42 27.5162 26.956 27.5162 25.132C27.5162 24.052 27.6482 22.672 27.9122 20.992C28.2002 19.288 28.5602 17.704 28.9922 16.24C29.2082 15.472 29.4962 14.944 29.8562 14.656C30.2162 14.368 30.7922 14.224 31.5842 14.224C32.8082 14.224 33.4202 14.632 33.4202 15.448C33.4202 16.048 33.1922 17.44 32.7362 19.624C32.1602 22.264 31.8722 24.052 31.8722 24.988C31.8722 25.708 31.9682 26.26 32.1602 26.644C32.3522 27.028 32.6762 27.22 33.1322 27.22C33.5642 27.22 34.1042 26.92 34.7522 26.32C35.4002 25.72 36.2642 24.772 37.3442 23.476C37.6322 23.14 37.9562 22.972 38.3162 22.972C38.6282 22.972 38.8682 23.116 39.0362 23.404C39.2282 23.692 39.3242 24.088 39.3242 24.592C39.3242 25.552 39.0962 26.296 38.6402 26.824C36.2642 29.728 34.0442 31.18 31.9802 31.18ZM54.8436 23.044C55.1556 23.044 55.3956 23.2 55.5636 23.512C55.7556 23.8 55.8516 24.172 55.8516 24.628C55.8516 25.18 55.7676 25.612 55.5996 25.924C55.4316 26.236 55.1676 26.512 54.8076 26.752C52.7436 28.144 51.2316 29.176 50.2716 29.848L47.9676 31.396C47.0556 36.364 45.8556 40.264 44.3676 43.096C42.9036 45.952 41.0316 47.38 38.7516 47.38C37.5276 47.38 36.5316 46.996 35.7636 46.228C34.9956 45.484 34.6116 44.5 34.6116 43.276C34.6116 41.572 35.2836 39.736 36.6276 37.768C37.9716 35.824 40.4916 33.424 44.1876 30.568L44.4036 29.164C43.9956 29.812 43.4556 30.316 42.7836 30.676C42.1356 31.012 41.4876 31.18 40.8396 31.18C39.3516 31.18 38.1636 30.64 37.2756 29.56C36.3876 28.48 35.9436 27.064 35.9436 25.312C35.9436 23.392 36.3876 21.58 37.2756 19.876C38.1636 18.148 39.3396 16.768 40.8036 15.736C42.2916 14.68 43.8636 14.152 45.5196 14.152C46.0476 14.152 46.3956 14.26 46.5636 14.476C46.7556 14.668 46.9116 15.028 47.0316 15.556C47.4876 15.46 48.0156 15.412 48.6156 15.412C49.2156 15.412 49.6356 15.508 49.8756 15.7C50.1396 15.868 50.2716 16.216 50.2716 16.744C50.2716 17.032 50.2596 17.26 50.2356 17.428C50.1396 18.172 49.8396 20.056 49.3356 23.08C49.2396 23.656 49.1316 24.292 49.0116 24.988C48.9156 25.66 48.8076 26.38 48.6876 27.148C50.5356 25.708 52.3116 24.436 54.0156 23.332C54.3276 23.14 54.6036 23.044 54.8436 23.044ZM42.1356 27.544C42.6876 27.544 43.2156 27.208 43.7196 26.536C44.2236 25.864 44.5836 24.904 44.7996 23.656L45.9516 17.5C44.9676 17.524 44.0556 17.908 43.2156 18.652C42.3756 19.372 41.7036 20.332 41.1996 21.532C40.6956 22.732 40.4436 24.004 40.4436 25.348C40.4436 26.092 40.5876 26.644 40.8756 27.004C41.1876 27.364 41.6076 27.544 42.1356 27.544ZM39.1476 43.888C39.7476 43.888 40.4196 43.168 41.1636 41.728C41.9316 40.288 42.6636 37.996 43.3596 34.852C41.5116 36.436 40.1796 37.864 39.3636 39.136C38.5476 40.408 38.1396 41.524 38.1396 42.484C38.1396 42.892 38.2116 43.228 38.3556 43.492C38.5236 43.756 38.7876 43.888 39.1476 43.888ZM69.6942 22.972C70.0062 22.972 70.2462 23.116 70.4142 23.404C70.6062 23.692 70.7022 24.088 70.7022 24.592C70.7022 25.552 70.4742 26.296 70.0182 26.824C69.1302 27.904 67.8702 28.9 66.2382 29.812C64.6302 30.724 62.9022 31.18 61.0542 31.18C58.5342 31.18 56.5782 30.496 55.1862 29.128C53.7942 27.76 53.0982 25.888 53.0982 23.512C53.0982 21.856 53.4462 20.32 54.1422 18.904C54.8382 17.464 55.7982 16.324 57.0222 15.484C58.2702 14.644 59.6742 14.224 61.2342 14.224C62.6262 14.224 63.7422 14.644 64.5822 15.484C65.4222 16.3 65.8422 17.416 65.8422 18.832C65.8422 20.488 65.2422 21.916 64.0422 23.116C62.8662 24.292 60.8622 25.228 58.0302 25.924C58.6302 27.028 59.7702 27.58 61.4502 27.58C62.5302 27.58 63.7542 27.208 65.1222 26.464C66.5142 25.696 67.7142 24.7 68.7222 23.476C69.0102 23.14 69.3342 22.972 69.6942 22.972ZM60.6222 17.752C59.7342 17.752 58.9782 18.268 58.3542 19.3C57.7542 20.332 57.4542 21.58 57.4542 23.044V23.116C58.8702 22.78 59.9862 22.276 60.8022 21.604C61.6182 20.932 62.0262 20.152 62.0262 19.264C62.0262 18.808 61.8942 18.448 61.6302 18.184C61.3902 17.896 61.0542 17.752 60.6222 17.752ZM86.131 19.948C86.443 19.948 86.683 20.104 86.851 20.416C87.019 20.728 87.103 21.124 87.103 21.604C87.103 22.756 86.755 23.44 86.059 23.656C84.619 24.16 83.035 24.448 81.307 24.52C80.851 26.536 79.951 28.156 78.607 29.38C77.263 30.58 75.739 31.18 74.035 31.18C72.595 31.18 71.359 30.832 70.327 30.136C69.319 29.44 68.551 28.516 68.023 27.364C67.495 26.212 67.231 24.964 67.231 23.62C67.231 21.796 67.579 20.176 68.275 18.76C68.971 17.32 69.931 16.204 71.155 15.412C72.379 14.596 73.735 14.188 75.223 14.188C77.047 14.188 78.511 14.824 79.615 16.096C80.743 17.344 81.403 18.892 81.595 20.74C82.723 20.668 84.067 20.428 85.627 20.02C85.819 19.972 85.987 19.948 86.131 19.948ZM74.323 27.364C75.091 27.364 75.751 27.052 76.303 26.428C76.879 25.804 77.263 24.904 77.455 23.728C76.711 23.224 76.135 22.564 75.727 21.748C75.343 20.932 75.151 20.068 75.151 19.156C75.151 18.772 75.187 18.388 75.259 18.004H75.079C74.119 18.004 73.315 18.472 72.667 19.408C72.043 20.32 71.731 21.616 71.731 23.296C71.731 24.616 71.983 25.624 72.487 26.32C73.015 27.016 73.627 27.364 74.323 27.364ZM86.5692 31.18C85.6572 31.18 85.0092 30.7 84.6252 29.74C84.2652 28.78 84.0852 27.244 84.0852 25.132C84.0852 22.012 84.5292 19.048 85.4172 16.24C85.6332 15.544 85.9812 15.04 86.4612 14.728C86.9652 14.392 87.6612 14.224 88.5492 14.224C89.0292 14.224 89.3652 14.284 89.5572 14.404C89.7492 14.524 89.8452 14.752 89.8452 15.088C89.8452 15.472 89.6652 16.336 89.3052 17.68C89.0652 18.64 88.8732 19.48 88.7292 20.2C88.5852 20.92 88.4652 21.808 88.3692 22.864C89.1612 20.8 90.0492 19.12 91.0332 17.824C92.0172 16.528 92.9772 15.604 93.9132 15.052C94.8732 14.5 95.7492 14.224 96.5412 14.224C97.3092 14.224 97.8852 14.428 98.2692 14.836C98.6772 15.22 98.8812 15.796 98.8812 16.564C98.8812 17.188 98.7492 18.364 98.4852 20.092C98.2452 21.556 98.0532 22.948 97.9092 24.268C97.7652 25.564 97.6932 27.016 97.6932 28.624C97.6932 29.536 97.5012 30.196 97.1172 30.604C96.7572 30.988 96.1572 31.18 95.3172 31.18C94.5252 31.18 93.9492 30.976 93.5892 30.568C93.2292 30.16 93.0492 29.548 93.0492 28.732C93.0492 27.772 93.2172 26.188 93.5532 23.98C93.8412 22.06 93.9852 20.836 93.9852 20.308C93.9852 19.924 93.8532 19.732 93.5892 19.732C93.2772 19.732 92.8332 20.14 92.2572 20.956C91.7052 21.748 91.1292 22.804 90.5292 24.124C89.9532 25.444 89.4852 26.836 89.1252 28.3C88.8612 29.428 88.5492 30.196 88.1892 30.604C87.8532 30.988 87.3132 31.18 86.5692 31.18Z" fill="black"/>
  </svg>
  